<?xml version="1.0" encoding="utf-8"?>
<!-- Generator: Adobe Illustrator 21.0.2, SVG Export Plug-In . SVG Version: 6.00 Build 0)  -->
<svg version="1.1" id="Capa_1" xmlns="http://www.w3.org/2000/svg" xmlns:xlink="http://www.w3.org/1999/xlink" x="0px" y="0px"
	 viewBox="0 0 500 500" style="enable-background:new 0 0 500 500;" xml:space="preserve">
<style type="text/css">
	.st0{fill:none;stroke:#FFEC00;stroke-width:0.8191;stroke-miterlimit:10;}
	.st1{fill:#1D1D1B;}
	.st2{fill:none;}
	.st3{fill:none;stroke:#EA6126;stroke-width:3.2211;stroke-miterlimit:10;}
	.st4{enable-background:new    ;}
	.st5{fill:#EA6126;}
</style>
<line class="st0" x1="273.2" y1="287.9" x2="273.1" y2="287.8"/>
<line class="st0" x1="340.3" y1="252" x2="340.1" y2="251.8"/>
<line class="st0" x1="391.1" y1="151" x2="390.5" y2="149.9"/>
<line class="st0" x1="258.1" y1="203" x2="257.9" y2="202.6"/>
<line class="st0" x1="252.2" y1="192.1" x2="252" y2="191.8"/>
<line class="st0" x1="282" y1="167" x2="281.8" y2="166.6"/>
<line class="st0" x1="335" y1="182.9" x2="334.8" y2="182.5"/>
<polyline class="st0" points="325.3,165.2 325.2,165.1 325.1,164.9 "/>
<line class="st0" x1="263.4" y1="252.4" x2="263.1" y2="251.9"/>
<line class="st0" x1="256.4" y1="239.7" x2="256.2" y2="239.2"/>
<line class="st0" x1="218.7" y1="203.3" x2="218.5" y2="202.8"/>
<line class="st0" x1="212.8" y1="192.3" x2="212.7" y2="192.1"/>
<line class="st0" x1="298.1" y1="216.4" x2="297.9" y2="216.1"/>
<path class="st1" d="M241.8,134.7l-21.5,42.5c-3.6,8.6,3,15.1,8.9,15.1l23.1-0.1l0,0l20.5-40.7h76.5l-42,81.2
	c-5.6,14.9-20.5,20.2-42.9,19.2h-1.2l-60.9-0.1l-3.5,10.1l-28.7-0.5c-10,0-35.7-8.4-28.2-47.4c0,14.9,11,23.6,26.6,23.6
	c0,0,56.9,0.4,96.9,0.6c20.4,0,27.4-10.7,32.7-21.9l7.2-14L324,165l-41.2-0.4l-1,2l-18.7,36h-5.2l-39.4,0.2h-0.4h-6.7l-23.6,0.1
	l9.8-18.8l8.9-17.3L227,127c5.3-8.6,11.4-22.3,33.7-22.3l60.4-0.2c21.7,0,34.9-21.6,34.9-37.4l10.4,18.2
	c-2.5,16.5-17.1,28.4-35.6,31l-70.8-0.5c-5.9,1.3-10.4,4.3-13.2,9.1L241.8,134.7z"/>
<path class="st2" d="M356.1,67.1c0,18.1-15.2,37.4-35,37.4l-60.4,0.2c-13.6,0-25.3,5.5-33.8,22.3l-20.3,39.7l-9,17.3l-9.8,18.8
	l23.6-0.1h6.7h0.4l39.4-0.1h5.2l18.7-36l1-2l41.2,0.5L297.4,218c-5.7,10.6-11.6,20.3-31.9,20.3l-96.9-0.6
	c-21.8,0-29.8-17.1-25.5-27.6l21.4-43.1l40.1-77.4c2.9-5.5,9.5-21.8,29.9-21.8l98.8-0.4L356.1,67.1z"/>
<path class="st3" d="M388.5,156.7L340.3,252c-8.3,16.8-20.9,35.8-55.5,35.9l-65-0.1c-26.2-3.1-22.7-29.7-16.6-36
	c4,0,69.6-0.3,69.6-0.3c24.2,0,30.2-11.8,33.6-17.3l42.8-82.7h-75.7h-0.8l-20.5,40.7l0,0l-23.1,0.1c-7.1,0-12.1-8-8.9-15.1
	l21.5-42.5l5-9.8c2.7-4.5,6.9-7.7,13-9.1c1.3-0.3,60.5,0.3,60.5,0.3l47.7,0.8C379.3,117,398.5,134.7,388.5,156.7z"/>
<g class="st4">
	<path class="st1" d="M28.2,357.7c2.3,4.2,5.1,5.8,9,5.8c5.7,0,8.4-3.5,8.4-11.4v-35.2h3.3v35.6c0,7.9-3.2,14.2-11.6,14.2
		c-5.2,0-9.1-2.6-11.6-7.2L28.2,357.7z"/>
	<path class="st1" d="M59,341.1c0-15.4,8-25.1,19.3-25.1c11.2,0,19.2,9.7,19.2,25.1c0,15.5-8,25.5-19.2,25.5
		C67,366.6,59,356.6,59,341.1z M94,341.1c0-13.5-6.4-22-15.8-22c-9.5,0-15.9,8.5-15.9,22c0,13.6,6.4,22.4,15.9,22.4
		C87.7,363.5,94,354.7,94,341.1z"/>
	<path class="st1" d="M133.5,365.7l-12.6-22.5H111v22.5h-3.3v-48.8h13.3c9.3,0,15.4,3.6,15.4,12.9c0,7.8-4.7,12.2-12,13.3l12.8,22.7
		H133.5z M120.2,340.5c8.3,0,12.8-3.5,12.8-10.7c0-7.3-4.5-10-12.8-10H111v20.7H120.2z"/>
	<path class="st1" d="M164.6,316c6.3,0,10.2,3.1,12.7,5.9l-1.9,2.2c-2.4-2.7-5.7-5-10.8-5c-10.7,0-17.3,8.5-17.3,22.1
		s6.3,22.3,16.9,22.3c4.2,0,8.2-1.3,10.4-3.7v-15.2h-11.1v-2.9h14.2v19.3c-2.9,3.3-7.7,5.6-13.8,5.6c-12,0-20.1-9.9-20.1-25.4
		C143.9,325.7,152.3,316,164.6,316z"/>
	<path class="st1" d="M189.3,316.9h25.5v3h-22.3v18.5h18.7v3h-18.7v21.5h23v3h-26.2V316.9z"/>
</g>
<g class="st4">
	<path class="st5" d="M243.5,316.2c6.3,0,10.6,3,13.3,6l-3.4,3.9c-2.3-2.6-5.2-4.5-9.9-4.5c-9.4,0-15.5,7.6-15.5,19.6
		c0,12.2,5.5,19.9,15.5,19.9c3.3,0,6.6-1.1,8.4-2.9v-12.7h-9.9v-5.1h15.2V361c-3,3.1-8.2,5.6-14.5,5.6c-12.2,0-20.9-9.3-20.9-25.2
		C222,325.8,231,316.2,243.5,316.2z"/>
	<path class="st5" d="M267.9,317.1h6v28.7c0,11.7,4.8,15.4,10.8,15.4c6.2,0,11.1-3.7,11.1-15.4v-28.7h5.7v28.5
		c0,15.6-7.2,21-16.7,21s-16.7-5.3-16.7-21V317.1z"/>
	<path class="st5" d="M310.3,362l24.5-39.7h-22.3v-5.2h29.6v3.6l-24.5,39.7h24.7v5.3h-32V362z"/>
	<path class="st5" d="M351.3,317.1h7l9,26.1l3.3,9.9h0.3l3.3-9.9l8.9-26.1h6.9v48.6h-5.6V339c0-4.3,0.5-10.1,0.8-14.4H385l-3.7,10.8
		l-8.9,25.4H369l-8.9-25.4l-3.7-10.8h-0.3c0.3,4.3,0.7,10.1,0.7,14.4v26.8h-5.5V317.1z"/>
	<path class="st5" d="M423.8,350.9h-16.9l-4.5,14.8h-6l15.7-48.6h6.7l15.7,48.6h-6.2L423.8,350.9z M422.3,346l-2.2-7.4
		c-1.6-5.4-3.1-10.7-4.6-16.4h-0.3c-1.5,5.6-3,11-4.6,16.4l-2.3,7.4H422.3z"/>
	<path class="st5" d="M440.7,317.1h6.1l16.9,30.5l5,10.1h0.3c-0.3-4.9-0.8-10.4-0.8-15.5v-25.1h5.6v48.6h-6.1l-16.8-30.6l-5-10h-0.3
		c0.3,4.9,0.7,10.1,0.7,15.2v25.4h-5.6V317.1z"/>
</g>
<g>
	<g>
		<path class="st5" d="M417.8,311.5h-4.2l6-9.8h5.7L417.8,311.5z"/>
	</g>
</g>
<g class="st4">
	<path class="st1" d="M81.9,394.8h6.4c7.8,0,12,4.9,12,13.7c0,8.8-4.2,13.9-11.9,13.9h-6.5V394.8z M88,419.5c6,0,8.9-4.1,8.9-11.1
		c0-6.9-2.9-10.8-8.9-10.8h-2.9v21.9H88z"/>
	<path class="st1" d="M105.6,394.8h3.3v27.6h-3.3V394.8z"/>
	<path class="st1" d="M115.7,416.4c1.8,2.1,4.3,3.5,7,3.5c3.3,0,5.3-1.8,5.3-4.5c0-2.8-1.9-3.7-4.3-4.9l-3.6-1.7
		c-2.4-1.1-5.2-3.1-5.2-7.1c0-4.2,3.4-7.3,8-7.3c3,0,5.7,1.4,7.5,3.4l-1.7,2.3c-1.5-1.6-3.4-2.6-5.8-2.6c-2.9,0-4.8,1.6-4.8,4
		c0,2.7,2.2,3.7,4.2,4.6l3.6,1.7c2.9,1.4,5.2,3.3,5.2,7.4c0,4.4-3.3,7.9-8.7,7.9c-3.6,0-6.7-1.6-8.9-4.1L115.7,416.4z"/>
	<path class="st1" d="M136.1,394.8h14.6v2.9h-11.4v8.7h9.6v3h-9.6v10h11.8v3h-15V394.8z"/>
	<path class="st1" d="M156.3,394.8h3.3l9.2,17.3l2.8,5.7h0.2c-0.2-2.8-0.4-5.9-0.4-8.8v-14.3h3.1v27.6h-3.3l-9.2-17.4l-2.7-5.7H159
		c0.2,2.8,0.4,5.7,0.4,8.6v14.4h-3.1V394.8z M163.2,390.3c-0.7,0-1.4,0.8-1.5,2.2h-1.8c0.2-2.6,1.4-4.5,3.3-4.5
		c2.1,0,3.2,2.2,4.6,2.2c0.7,0,1.4-0.8,1.5-2.2h1.8c-0.2,2.6-1.4,4.5-3.3,4.5C165.8,392.5,164.6,390.3,163.2,390.3z"/>
	<path class="st1" d="M192.8,414h-9.3l-2.4,8.4h-3.3l8.6-27.6h3.6l8.6,27.6h-3.4L192.8,414z M192,411.2l-1.2-4.2
		c-0.9-3.1-1.7-6.1-2.5-9.3h-0.2c-0.8,3.2-1.6,6.2-2.5,9.3l-1.2,4.2H192z"/>
	<path class="st1" d="M202,394.8h6.4c7.8,0,12,4.9,12,13.7c0,8.8-4.2,13.9-11.9,13.9H202V394.8z M208.1,419.5c6,0,8.9-4.1,8.9-11.1
		c0-6.9-2.9-10.8-8.9-10.8h-2.9v21.9H208.1z"/>
	<path class="st1" d="M224.2,408.5c0-8.8,4.5-14.2,10.9-14.2c6.4,0,10.8,5.4,10.8,14.2c0,8.9-4.5,14.4-10.8,14.4
		C228.7,422.9,224.2,417.4,224.2,408.5z M242.6,408.5c0-6.9-3-11.1-7.5-11.1c-4.6,0-7.6,4.3-7.6,11.1c0,6.9,3,11.4,7.6,11.4
		C239.6,419.8,242.6,415.4,242.6,408.5z"/>
	<path class="st1" d="M265.2,422.4l-6.1-11.7h-4.6v11.7h-3.3v-27.6h8c5.2,0,8.9,2,8.9,7.7c0,4.3-2.2,6.9-5.7,7.8l6.5,12H265.2z
		 M254.5,407.9h4.3c4,0,6.1-1.8,6.1-5.3c0-3.6-2.2-4.9-6.1-4.9h-4.3V407.9z"/>
	<path class="st1" d="M291.6,394.3c3.4,0,5.8,1.7,7.3,3.4l-1.9,2.2c-1.3-1.5-2.9-2.6-5.4-2.6c-5.2,0-8.4,4.3-8.4,11.2
		c0,6.9,3,11.3,8.4,11.3c1.8,0,3.6-0.6,4.6-1.6V411h-5.4v-2.9h8.3v11.6c-1.7,1.8-4.5,3.2-7.9,3.2c-6.7,0-11.4-5.3-11.4-14.3
		C279.9,399.7,284.8,394.3,291.6,394.3z"/>
	<path class="st1" d="M319,422.4l-6.1-11.7h-4.6v11.7H305v-27.6h8c5.2,0,8.9,2,8.9,7.7c0,4.3-2.2,6.9-5.7,7.8l6.5,12H319z
		 M308.3,407.9h4.3c4,0,6.1-1.8,6.1-5.3c0-3.6-2.2-4.9-6.1-4.9h-4.3V407.9z"/>
	<path class="st1" d="M338.6,414h-9.3l-2.4,8.4h-3.3l8.6-27.6h3.6l8.6,27.6H341L338.6,414z M337.8,411.2l-1.2-4.2
		c-0.9-3.1-1.7-6.1-2.5-9.3h-0.2c-0.8,3.2-1.6,6.2-2.5,9.3l-1.2,4.2H337.8z"/>
	<path class="st1" d="M347.8,394.8h14.7v2.9H351v9.3h9.7v2.9H351v12.4h-3.3V394.8z"/>
	<path class="st1" d="M366.7,394.8h3.3v27.6h-3.3V394.8z"/>
	<path class="st1" d="M386.6,394.3c3,0,5.4,1.6,6.9,3.4l-1.8,2.2c-1.4-1.6-3-2.6-5.1-2.6c-4.8,0-8.1,4.3-8.1,11.2
		c0,6.9,3.1,11.3,7.9,11.3c2.4,0,4.2-1.1,5.8-3.1l1.8,2.1c-2,2.5-4.5,4-7.7,4c-6.4,0-11.2-5.3-11.2-14.3
		C375.2,399.7,380.1,394.3,386.6,394.3z"/>
	<path class="st1" d="M396,408.5c0-8.8,4.5-14.2,10.9-14.2c6.4,0,10.8,5.4,10.8,14.2c0,8.9-4.5,14.4-10.8,14.4
		C400.5,422.9,396,417.4,396,408.5z M414.4,408.5c0-6.9-3-11.1-7.5-11.1c-4.6,0-7.6,4.3-7.6,11.1c0,6.9,3,11.4,7.6,11.4
		C411.4,419.8,414.4,415.4,414.4,408.5z"/>
</g>
<g>
	<g>
		<path class="st1" d="M335.7,391.8h-2.1l3-5.1h2.9L335.7,391.8z"/>
	</g>
</g>
</svg>
